<?xml version="1.0" encoding="utf-8"?>
<!-- Generator: Adobe Illustrator 19.2.1, SVG Export Plug-In . SVG Version: 6.00 Build 0)  -->
<svg version="1.1" id="Layer_1" xmlns="http://www.w3.org/2000/svg" xmlns:xlink="http://www.w3.org/1999/xlink" x="0px" y="0px"
	 viewBox="0 0 375.4 135.1" style="enable-background:new 0 0 375.4 135.1;" xml:space="preserve">
<style type="text/css">
	.st0{fill:#ED1C24;}
	.st1{fill:#F7BC46;}
	.st2{fill:#F4AD21;}
	.st3{fill:#666666;}
	.st4{fill:#E0B373;}
	.st5{fill:#999999;}
	.st6{fill:#FFFCC5;}
</style>
<g>
	<path class="st0" d="M102,135.1h-69C14.9,135.1,0,120.2,0,102l0-69C0,14.9,14.9,0,33.1,0l69,0c18.2,0,33.1,14.9,33.1,33.1v69
		C135.1,120.2,120.2,135.1,102,135.1z"/>
	<rect x="51" class="st1" width="257.5" height="67.6"/>
	<rect x="51" y="67.6" class="st2" width="257.5" height="67.6"/>
	<polygon class="st3" points="375.1,67.6 360.8,81.8 360.8,81.4 374.7,67.6 360.8,53.7 360.8,53.3 	"/>
	<polygon class="st4" points="375.4,67.6 307.8,135.1 307.8,0 	"/>
	<polygon class="st5" points="374.7,67.6 360.8,81.4 360.8,53.7 	"/>
	<rect x="25.6" class="st5" width="26.3" height="135.1"/>
	<g>
		<path class="st6" d="M84.5,111.2V89.3h5.9c2.1,0,3.6,0.2,4.5,0.6c0.9,0.4,1.6,1.1,2.1,1.9c0.5,0.9,0.7,1.9,0.7,3.2
			c0,1.5-0.3,2.8-1,3.9c-0.6,1.1-1.7,2-3.1,2.6c-1.4,0.6-3,0.9-4.7,0.9h-1.3v8.7H84.5z M87.6,100.1h1.2c2,0,3.4-0.5,4.3-1.4
			c0.9-0.9,1.3-2.1,1.3-3.5c0-0.7-0.1-1.4-0.4-1.9c-0.3-0.5-0.7-0.9-1.3-1.3c-0.6-0.3-1.7-0.5-3.2-0.5h-1.8V100.1z"/>
		<path class="st6" d="M101.3,111.2V89.3h12.3v2.3h-9.2v7h7.7v2.3h-7.7v7.9h9.8v2.3H101.3z"/>
		<path class="st6" d="M117.7,111.2V89.3h3.1l11,16.9V89.3h2.7v21.9h-3.1l-11-16.9v16.9H117.7z"/>
		<path class="st6" d="M156.6,110.1c-0.9,0.5-1.7,0.8-2.4,1c-0.7,0.2-1.4,0.4-2.2,0.5c-0.8,0.1-1.6,0.2-2.5,0.2
			c-3.7,0-6.4-1.1-8.1-3.3c-1.7-2.2-2.6-4.9-2.6-8.2c0-3.4,0.9-6.1,2.7-8.3c1.8-2.2,4.5-3.2,8.2-3.2c2,0,4.3,0.3,6.9,1v2.9
			c-2.2-0.8-3.7-1.2-4.6-1.3c-0.8-0.1-1.6-0.2-2.4-0.2c-2.6,0-4.5,0.9-5.7,2.7c-1.2,1.8-1.8,4-1.8,6.6c0,2.7,0.7,4.9,2,6.5
			c1.4,1.7,3.3,2.5,5.8,2.5c0.7,0,1.4-0.1,2.1-0.2c0.7-0.1,1.4-0.3,2.1-0.5c0.7-0.2,1.5-0.6,2.5-1.2V110.1z"/>
		<path class="st6" d="M161.1,111.2V89.3h3.1v21.9H161.1z"/>
		<path class="st6" d="M169.9,111.2V89.3h3.1v19.6h9.7v2.3H169.9z"/>
		<path class="st6" d="M208.6,111.2l-1.1-1.3c-1.6,1.2-3.5,1.9-5.7,1.9c-1.4,0-2.8-0.3-4-0.9c-1.2-0.6-2.2-1.4-2.9-2.6
			c-0.7-1.1-1-2.3-1-3.6c0-1.4,0.4-2.7,1.2-4s2.2-2.2,4.2-2.9c-1-1.8-1.5-3.3-1.5-4.5c0-0.8,0.2-1.6,0.7-2.3
			c0.5-0.7,1.1-1.3,1.9-1.7c0.8-0.4,1.7-0.6,2.7-0.6c1.4,0,2.6,0.4,3.5,1.3c0.9,0.9,1.4,1.9,1.4,3.1c0,2.2-1.6,4.1-4.8,5.7
			c1.5,2.6,3.2,5,5.2,7.3c0.4-0.5,0.6-1,0.8-1.5c0.2-0.5,0.3-1,0.4-1.8c0.1-0.7,0.2-1.5,0.2-2.3l0-1.1h2.9c0,3.2-1,6-2.9,8.4
			c0.9,1.1,1.9,2.2,3.1,3.3H208.6z M206.2,108.2c-1.4-1.7-2.5-3.1-3.3-4.3c-0.8-1.2-1.7-2.6-2.7-4.3c-1.3,0.5-2.2,1.2-2.7,1.9
			c-0.5,0.8-0.7,1.6-0.7,2.5c0,0.9,0.3,1.9,0.8,2.8c0.5,0.9,1.2,1.6,2,2.1c0.8,0.5,1.7,0.7,2.7,0.7
			C203.7,109.6,205,109.1,206.2,108.2z M202.1,97c2.1-1,3.1-2.2,3.1-3.8c0-0.7-0.2-1.2-0.6-1.6c-0.4-0.4-1-0.7-1.7-0.7
			c-0.8,0-1.4,0.2-1.7,0.7c-0.3,0.5-0.5,1-0.5,1.6C200.7,94.2,201.2,95.5,202.1,97z"/>
		<path class="st6" d="M242.9,110.1c-0.9,0.5-1.7,0.8-2.4,1c-0.7,0.2-1.4,0.4-2.2,0.5c-0.8,0.1-1.6,0.2-2.5,0.2
			c-3.7,0-6.4-1.1-8.1-3.3c-1.7-2.2-2.6-4.9-2.6-8.2c0-3.4,0.9-6.1,2.7-8.3c1.8-2.2,4.5-3.2,8.2-3.2c2,0,4.3,0.3,6.9,1v2.9
			c-2.2-0.8-3.7-1.2-4.6-1.3c-0.8-0.1-1.6-0.2-2.4-0.2c-2.6,0-4.5,0.9-5.7,2.7c-1.2,1.8-1.8,4-1.8,6.6c0,2.7,0.7,4.9,2,6.5
			c1.4,1.7,3.3,2.5,5.8,2.5c0.7,0,1.4-0.1,2.1-0.2c0.7-0.1,1.4-0.3,2.1-0.5c0.7-0.2,1.5-0.6,2.5-1.2V110.1z"/>
		<path class="st6" d="M256.4,111.8c-2.1,0-3.9-0.5-5.4-1.4c-1.5-0.9-2.7-2.3-3.6-4.1c-0.8-1.8-1.3-3.8-1.3-6.1
			c0-2.2,0.4-4.2,1.2-5.9c0.8-1.8,2-3.2,3.6-4.1c1.6-1,3.4-1.5,5.5-1.5c2.1,0,3.9,0.5,5.5,1.5c1.6,1,2.8,2.3,3.6,4.1
			c0.8,1.8,1.2,3.8,1.2,5.9c0,2.2-0.4,4.1-1.2,5.9c-0.8,1.8-2,3.1-3.5,4.1C260.3,111.3,258.5,111.8,256.4,111.8z M256.4,109.4
			c2.2,0,3.9-0.8,5.1-2.5c1.2-1.6,1.8-3.9,1.8-6.7c0-2.8-0.6-5.1-1.8-6.7c-1.2-1.6-2.9-2.5-5.1-2.5c-2.2,0-3.9,0.8-5.1,2.5
			c-1.2,1.6-1.8,3.9-1.8,6.7c0,2.8,0.6,5.1,1.8,6.7C252.4,108.6,254.2,109.4,256.4,109.4z"/>
		<path class="st6" d="M271.1,111.2v-3.7h3.7v3.7H271.1z"/>
	</g>
</g>
</svg>
